Coordinates
version=1
nRows=6
nColumns=36
inDegrees=yes

Units are S.I. units (second, meters, Newtons, ...)
If the header above contains a line with 'inDegrees', this indicates whether rotational values are in degrees (yes) or radians (no).

endheader
time	pelvis_tilt	pelvis_list	pelvis_rotation	pelvis_tx	pelvis_ty	pelvis_tz	hip_flexion_r	hip_adduction_r	hip_rotation_r	knee_angle_r	knee_angle_r_beta	ankle_angle_r	subtalar_angle_r	mtp_angle_r	hip_flexion_l	hip_adduction_l	hip_rotation_l	knee_angle_l	knee_angle_l_beta	ankle_angle_l	subtalar_angle_l	mtp_angle_l	lumbar_extension	lumbar_bending	lumbar_rotation	arm_flex_r	arm_add_r	arm_rot_r	elbow_flex_r	pro_sup_r	arm_flex_l	arm_add_l	arm_rot_l	elbow_flex_l	pro_sup_l
     45.40000000	     -5.06619312	     -8.62963370	      0.43369947	      0.76100268	      0.99815237	      0.86300123	     30.64059029	      7.73287022	     -7.51503202	     21.70841908	      0.37888339	      4.16448658	     -5.24121103	     -7.49999987	     -8.69267257	    -10.82430587	     -1.66314141	     30.07426284	      0.52489491	     13.47078718	      1.46040318	     -7.49999987	     -3.45406452	     13.97691557	     -1.73397244	     -0.29389367	    -12.83036919	     -5.92086627	     10.17788108	     80.26889069	     11.35626642	     -7.02284314	     -2.32301447	     53.22222492	     70.95253175
     45.41666670	     -4.93525034	     -9.78058808	      0.34597152	      0.76144270	      1.00062689	      0.86485045	     29.82421603	      9.13616333	     -7.53486219	     22.92625311	      0.40013860	      5.42983046	     -5.74350170	     -7.49999987	     -7.39439738	    -12.26351357	     -0.46777593	     33.97993541	      0.59306175	     10.45695391	      1.20542049	     -7.49999987	     -3.46685569	     15.18697811	     -1.39051295	      0.22781550	    -12.96214090	     -4.81316812	     10.69637440	     79.81443897	     10.21503719	     -6.36920185	     -2.77572346	     50.63170384	     70.61107835
     45.43333330	     -4.47442698	    -10.67951890	      0.32222058	      0.76169733	      1.00633038	      0.86745116	     28.39535406	     10.34107292	     -7.51906285	     23.72102871	      0.41401005	      6.81304963	     -6.02982594	     -7.49999987	     -5.61269656	    -13.40771274	      0.75224321	     38.78021057	      0.67684236	      6.72888895	      1.19791393	     -7.49999987	     -4.04204853	     16.13485925	     -0.92078359	      0.95441484	    -13.04318625	     -3.77907692	     11.71654725	     78.67946989	      9.32601396	     -5.83433367	     -3.03918317	     47.74161407	     70.05635383
     45.45000000	     -3.89897025	    -11.30528075	      0.27750478	      0.76237798	      1.01365272	      0.87100789	     26.51441916	     11.32812946	     -7.48362221	     23.88803255	      0.41692482	      7.81625625	     -6.07194012	     -7.49999987	     -3.30161287	    -14.19528273	      1.93032317	     44.04346005	      0.76870339	      2.93234420	      1.47910201	     -7.49999987	     -4.86943725	     16.76012074	     -0.10237609	      1.51119486	    -13.10273537	     -2.75943436	     13.24076825	     77.50710456	      8.82133244	     -5.36568608	     -2.80100239	     44.27476414	     69.80772117
     45.46666670	     -3.25203176	    -11.61560230	      0.43494998	      0.76292505	      1.01873674	      0.87348131	     24.30430733	     11.92499343	     -7.61206627	     23.48255064	      0.40984783	      8.62941689	     -5.67410820	     -7.49999987	     -0.53377629	    -14.55322443	      3.27101288	     49.35030708	      0.86132535	     -0.22664392	      1.50539493	     -7.49999987	     -5.89636827	     16.99407769	      0.58005870	      2.11870966	    -12.95425549	     -2.44005439	     14.85418650	     76.28829005	      8.55319913	     -4.97142277	     -2.55989375	     40.72639341	     69.39685460
     45.48333330	     -2.59411771	    -11.62789543	      0.69485103	      0.76335224	      1.02183575	      0.87448453	     21.92701732	     12.18907279	     -7.68615329	     22.74700968	      0.39701021	      9.12423367	     -5.21735497	     -7.49999987	      2.43731923	    -14.54142648	      4.44580199	     54.23400032	      0.94656187	     -1.97611249	      1.44188144	     -7.49999987	     -6.98423197	     16.86917009	      1.39149007	      2.42244989	    -12.77982843	     -2.41364033	     16.64367634	     75.40239906	      8.62178193	     -4.70055594	     -1.68249430	     36.79497108	     69.34891643
